<?xml version="1.0" encoding="iso-8859-1"?>
<!-- Generator: Adobe Illustrator 19.1.0, SVG Export Plug-In . SVG Version: 6.00 Build 0)  -->
<svg version="1.1" id="Layer_1" xmlns="http://www.w3.org/2000/svg" xmlns:xlink="http://www.w3.org/1999/xlink" x="0px" y="0px"
	 viewBox="0 0 540 473.873" style="enable-background:new 0 0 540 473.873;" xml:space="preserve">
<path style="fill:#00405D;" d="M179.334,142.659l-39.236,16.661c5.154-23.576,16.768-45.795,34.301-63.951
	c3.161-3.273,6.466-6.365,9.923-9.268C178.943,101.662,177.289,121.139,179.334,142.659z M296.343,108.212l-44.48,18.882
	l21.875,51.527l51.45-21.839C316.988,138.729,307.175,122.246,296.343,108.212z M192.939,136.892l40.569-17.221l-21.536-50.728
	c-1.355,1-2.636,2.14-3.845,3.392c-10.364,10.732-15.901,30.242-15.597,54.932C192.571,130.419,192.712,133.628,192.939,136.892z
	 M181.212,157.082l-43.637,18.513c-1.758,19.196,0.657,38.864,7.498,57.634l51.443-21.831
	C189.171,192.891,184.062,174.486,181.212,157.082z M238.981,132.559l-44.43,18.859c2.591,17.628,7.641,36.253,14.848,54.515
	l51.458-21.846L238.981,132.559z M243.725,267.385l44.466-18.882l-21.869-51.521l-51.457,21.832
	C223.072,236.875,232.886,253.358,243.725,267.385z M286.967,96.976c-4.731-5.25-9.617-10.037-14.605-14.286
	c-17.359-14.803-33.939-21.444-47.507-19.227l21.536,50.741L286.967,96.976z M201.975,224.287l-51.43,21.831
	c8.678,17.861,21.034,33.282,36.224,45.436l43.673-18.535C219.754,258.693,210.095,242.193,201.975,224.287z M330.654,169.664
	L279.21,191.51l21.869,51.521l44.424-18.852C342.91,206.551,337.854,187.919,330.654,169.664z M338.078,151.311l51.429-21.832
	c-8.678-17.86-21.033-33.282-36.225-45.435l-43.672,18.535C320.299,116.903,329.972,133.404,338.078,151.311z M358.848,218.523
	l43.623-18.527c1.758-19.196-0.649-38.857-7.49-57.628l-51.431,21.832C350.889,182.713,355.998,201.117,358.848,218.523z
	 M239.517,284.382l-39.243,16.653c6.291,3.865,12.955,7.214,19.942,10.04c20.448,8.265,42.128,11.281,63.454,9.049
	c-8.215-3.831-16.628-9.37-25.064-16.557C252.038,297.975,245.646,291.538,239.517,284.382z M540,58.695v258.261
	c0,32.283-26.413,58.696-58.695,58.696h-77.736l36.649,98.221l-180.666-98.221H58.696C26.413,375.652,0,349.239,0,316.956V58.695
	C0,26.413,26.413,0,58.696,0h422.609C513.587,0,540,26.413,540,58.695z M213.63,52.096c-0.345,0.141-0.688,0.281-1.033,0.421
	c-0.337,0.147-0.673,0.294-1.01,0.441c-17.906,7.76-33.796,18.744-47.259,32.685c-41.068,42.528-52.676,105.164-29.584,159.576
	c15.34,36.14,43.828,64.137,80.23,78.84c36.032,14.569,75.541,14.368,111.384-0.537c0.372-0.141,0.737-0.288,1.096-0.442
	c18.315-7.781,34.557-18.928,48.27-33.127c41.067-42.527,52.676-105.163,29.583-159.577
	C373.799,56.118,287.991,21.173,213.63,52.096z M256.398,55.487c8.214,3.831,16.62,9.364,25.048,16.542
	c6.568,5.593,12.961,12.03,19.09,19.186l39.243-16.654c-6.291-3.865-12.955-7.213-19.942-10.041
	C299.389,56.257,277.71,53.241,256.398,55.487z M253.086,278.621c4.731,5.264,9.609,10.044,14.599,14.293
	c17.367,14.796,33.938,21.43,47.514,19.22L293.67,261.4L253.086,278.621z M355.73,289.496c3.457-2.904,6.763-5.995,9.923-9.268
	c17.533-18.155,29.14-40.367,34.294-63.943l-39.222,16.646C362.77,254.45,361.117,273.928,355.73,289.496z M347.114,238.706
	l-40.555,17.221l21.528,50.721c1.354-1,2.629-2.133,3.838-3.384c10.364-10.732,15.9-30.243,15.597-54.934
	C347.481,245.177,347.341,241.969,347.114,238.706z"/>
</svg>
