<?xml version="1.0" encoding="utf-8"?>
<!-- Generator: Adobe Illustrator 19.1.0, SVG Export Plug-In . SVG Version: 6.00 Build 0)  -->
<svg version="1.1" id="Layer_1" xmlns="http://www.w3.org/2000/svg" xmlns:xlink="http://www.w3.org/1999/xlink" x="0px" y="0px"
	 viewBox="0 0 1192 444.8" style="enable-background:new 0 0 1192 444.8;" xml:space="preserve">
<style type="text/css">
	.st0{fill:#F2623E;}
	.st1{fill:#00405D;}
	.st2{fill:#231F20;}
</style>
<g>
	<g>
		<path class="st0" d="M1184,73.5c-5.3-13.6-12.8-25.5-22.4-35.5c-9.6-10-21.1-18.1-34.5-23.7c-13.4-5.6-28.2-8.7-44.3-8.7H892v86.5
			l92.6,254.5h16.4v-110h81.8c16.1,0,30.9-2.6,44.3-8.2c13.4-5.6,24.9-13.4,34.5-23.5c9.6-10.1,17.1-21.9,22.4-35.7
			c5.3-13.7,8-28.6,8-44.7v-6.3C1192,102,1189.3,87.1,1184,73.5z M1081,124c0,10.2-2.9,17.9-8.7,23.9c-5.7,6.1-14.5,8.7-26.1,8.7
			H1001v-70h45.3c11.9,0,20.8,3.2,26.3,9.1c5.6,6,8.4,14.2,8.4,24.4V124z"/>
		<path class="st1" d="M579.4,204.3c11-4,20.6-9.3,28.8-15.9c8.2-6.5,15.1-13.9,20.6-22.2c5.5-8.2,9.6-17.1,12.3-26.5
			c2.7-9.4,4.1-19.2,4.1-29.2c0-13.9-2.4-27.1-7.3-39.7c-4.8-12.6-12.1-23.7-21.8-33.3c-9.7-9.6-21.7-17.5-36.1-23.2
			c-14.4-5.7-31-8.8-49.9-8.8H335.8c2,1,3.9,2.5,5.7,3.7c16,10.1,29,23.3,38.5,39c9.8,16,14.9,35,15.3,56.5l0,24.8h-71.1
			c1.2,0,2.4,1,3.6,1.5c13.7,5.2,26.3,12.2,37.2,20.7c11.5,9,21,20.2,28.1,33.4c7.3,13.5,11.2,29.8,11.6,48.6
			c0,24.4-4.5,45.5-13.4,63.1c-8.9,17.8-21.5,32.2-37.5,43.6c-3.2,2.3-6.5,4.1-10,6.1H431v-124h40.7l60.5,124h36.1l35.4-96.6
			L579.4,204.3z M531.2,127.8c-1.6,3.9-3.8,7.2-6.7,10c-2.8,2.8-6.1,4.9-9.8,6.5c-3.7,1.6-7.7,2.2-11.9,2.2H431v-63h71.9
			c4.2,0,8.1,1,11.9,2.5c3.7,1.5,7,3.8,9.8,6.5c2.8,2.7,5,6.1,6.7,10c1.6,3.9,2.4,8.1,2.4,12.6C533.7,119.7,532.8,124,531.2,127.8z"
			/>
		<path class="st1" d="M63.9,300.6C53.9,282.1,49,259,49,231.7v-19.1h61v-5.5c-6-3.6-12.1-7.7-17.4-12.1
			c-11.4-9.5-20.8-21.4-27.7-35.2c-7-14.1-10.6-31.1-10.6-50.6c0-23.2,5.5-43.5,15.6-60.3C79.8,32.6,93,19.1,110,9V5.6H0v341h110
			v0.3c-1-0.6-2.5-1.3-3.6-1.9C88.5,334.1,74,319.2,63.9,300.6z"/>
		<path class="st1" d="M343.2,325.5c13.5-9.6,24-21.9,31.6-37c7.6-15.1,11.4-33.2,11.4-54.4c-0.3-15.8-3.4-29.2-9.3-40.1
			c-5.9-10.9-13.6-20.1-23.1-27.5c-9.5-7.4-20.3-13.4-32.3-17.9c-12-4.5-24.3-8.3-36.8-11.4c-12.5-3.1-24.7-5.7-36.7-7.9
			c-11.9-2.2-22.6-4.6-32-7.3c-9.4-2.7-16.9-5.9-22.6-9.8c-5.7-3.9-8.6-9-8.6-15.5c0-6,3.8-11.2,11.3-15.6c7.5-4.4,18.8-6.7,34-6.7
			c7.9,0,14.6,1,20.2,2.9c5.6,1.9,10.1,4.5,13.7,7.7c3.5,3.2,6.6,6.9,8.2,11c1.6,4.1,2.9,8.4,2.9,13v1.4h102v-5.3
			c0-18.2-4.7-34-12.7-47.2c-8.1-13.2-19-24.2-32.6-32.8c-13.6-8.6-29.6-15-47.7-19.1c-18.2-4.1-37.5-6.2-58-6.2
			c-20.2,0-39.5,2-58,5.9c-18.5,4-34.7,10.3-48.8,18.9c-14,8.6-25.3,19.9-33.7,33.8c-8.4,13.9-12.6,30.8-12.6,50.6
			c0,16.6,2.9,30.7,8.6,42.2c5.7,11.5,13.3,21.3,22.8,29.2c9.4,7.9,20.2,14.3,32.3,19.2c12.1,4.9,24.4,9,36.9,12.2
			c12.5,3.2,24.8,6,36.9,8.2c12.1,2.3,22.9,4.7,32.3,7.4c9.4,2.7,17,5.9,22.8,9.6c5.7,3.7,8.6,8.6,8.6,14.8c0,5.3-1.6,9.5-4.7,12.6
			c-3.1,3.1-7.1,5.3-11.9,6.8c-4.8,1.5-10,2.4-15.6,2.8c-5.7,0.4-11,0.6-16,0.6c-8.4,0-16-0.5-22.8-1.6c-6.8-1-12.6-3.1-17.3-6.3
			c-4.8-3.1-8.4-7.6-11-13.1c-2.6-5.6-3.9-13.2-3.9-22.2H67.3c0,24,4.3,44.3,12.8,60c8.6,15.7,20.4,28.2,35.5,37.3
			c15.1,9.1,32.9,15.5,53.5,19c20.6,3.5,42.8,5.3,66.7,5.3c21.5,0,41.4-2.2,59.7-6.7C313.8,342.1,329.7,335.1,343.2,325.5z"/>
		<polygon class="st0" points="840.3,5.6 712.9,5.6 588.2,346.6 655.2,346.6 712.8,346.6 725.5,310.6 751,310.6 751,222.6 
			725.5,222.6 776.5,90.5 827.5,222.6 803,222.6 803,310.6 827.5,310.6 840.2,346.6 891.5,346.6 964.7,346.6 		"/>
	</g>
	<g>
		<g>
			<path class="st2" d="M6.2,383h24.3c4.8,0,8.4,0.2,10.8,0.6s4.5,1.2,6.3,2.5c1.9,1.3,3.4,3,4.7,5.1c1.2,2.1,1.9,4.5,1.9,7.1
				c0,2.8-0.8,5.5-2.3,7.8c-1.5,2.4-3.6,4.2-6.2,5.3c3.7,1.1,6.5,2.9,8.5,5.5s3,5.6,3,9.2c0,2.8-0.6,5.4-1.9,8.1
				c-1.3,2.6-3,4.7-5.3,6.3c-2.2,1.6-5,2.5-8.2,2.9c-2,0.2-7,0.4-14.8,0.4H6.2V383z M18.5,393.1v14h8c4.8,0,7.7-0.1,8.9-0.2
				c2.1-0.2,3.7-1,5-2.2c1.2-1.2,1.8-2.8,1.8-4.7c0-1.9-0.5-3.4-1.6-4.6c-1-1.2-2.6-1.9-4.6-2.1c-1.2-0.1-4.7-0.2-10.5-0.2H18.5z
				 M18.5,417.2v16.2h11.4c4.4,0,7.2-0.1,8.4-0.4c1.8-0.3,3.3-1.1,4.5-2.4c1.1-1.3,1.7-3,1.7-5.2c0-1.8-0.4-3.4-1.3-4.6
				c-0.9-1.3-2.2-2.2-3.8-2.8c-1.7-0.6-5.3-0.9-10.9-0.9H18.5z"/>
			<path class="st2" d="M66.1,383h12.3v32.9c0,5.2,0.2,8.6,0.5,10.2c0.5,2.5,1.8,4.5,3.7,6c2,1.5,4.7,2.3,8.1,2.3
				c3.5,0,6.1-0.7,7.9-2.1c1.8-1.4,2.8-3.2,3.2-5.2c0.4-2.1,0.5-5.5,0.5-10.3V383h12.3v31.9c0,7.3-0.3,12.4-1,15.5
				c-0.7,3-1.9,5.6-3.7,7.6c-1.8,2.1-4.2,3.7-7.1,5c-3,1.2-6.9,1.8-11.7,1.8c-5.8,0-10.2-0.7-13.2-2s-5.4-3.1-7.1-5.2
				s-2.9-4.4-3.4-6.7c-0.8-3.5-1.2-8.6-1.2-15.4V383z"/>
			<path class="st2" d="M123.1,423.9l11.9-1.2c0.7,4,2.2,6.9,4.4,8.8c2.2,1.9,5.2,2.8,8.9,2.8c3.9,0,6.9-0.8,8.9-2.5
				c2-1.7,3-3.6,3-5.9c0-1.4-0.4-2.7-1.3-3.7c-0.8-1-2.3-1.9-4.4-2.6c-1.4-0.5-4.7-1.4-9.8-2.7c-6.6-1.6-11.2-3.6-13.8-6
				c-3.7-3.3-5.6-7.4-5.6-12.2c0-3.1,0.9-6,2.6-8.7c1.8-2.7,4.3-4.7,7.6-6.2c3.3-1.4,7.3-2.1,12-2.1c7.6,0,13.4,1.7,17.2,5
				c3.9,3.3,5.9,7.8,6.1,13.4l-12.3,0.5c-0.5-3.1-1.7-5.4-3.4-6.7c-1.7-1.4-4.3-2.1-7.8-2.1c-3.6,0-6.4,0.7-8.4,2.2
				c-1.3,0.9-1.9,2.2-1.9,3.8c0,1.4,0.6,2.7,1.8,3.7c1.5,1.3,5.3,2.7,11.3,4.1c6,1.4,10.4,2.9,13.2,4.4s5.1,3.6,6.7,6.2
				c1.6,2.6,2.4,5.8,2.4,9.7c0,3.5-1,6.7-2.9,9.8c-1.9,3-4.7,5.3-8.2,6.8c-3.5,1.5-7.9,2.2-13.2,2.2c-7.7,0-13.6-1.8-17.7-5.3
				C126.4,435.9,123.9,430.7,123.1,423.9z"/>
			<path class="st2" d="M181.2,443.7V383h12.3v60.7H181.2z"/>
			<path class="st2" d="M204,443.7V383h11.9l24.9,40.6V383h11.4v60.7h-12.3l-24.5-39.6v39.6H204z"/>
			<path class="st2" d="M263.9,443.7V383h45v10.3h-32.8v13.5h30.5v10.2h-30.5v16.5h33.9v10.2H263.9z"/>
			<path class="st2" d="M316.1,423.9l11.9-1.2c0.7,4,2.2,6.9,4.4,8.8c2.2,1.9,5.2,2.8,8.9,2.8c3.9,0,6.9-0.8,8.9-2.5
				c2-1.7,3-3.6,3-5.9c0-1.4-0.4-2.7-1.3-3.7c-0.8-1-2.3-1.9-4.4-2.6c-1.4-0.5-4.7-1.4-9.8-2.7c-6.6-1.6-11.2-3.6-13.8-6
				c-3.7-3.3-5.6-7.4-5.6-12.2c0-3.1,0.9-6,2.6-8.7c1.8-2.7,4.3-4.7,7.6-6.2c3.3-1.4,7.3-2.1,12-2.1c7.6,0,13.4,1.7,17.2,5
				c3.9,3.3,5.9,7.8,6.1,13.4l-12.3,0.5c-0.5-3.1-1.7-5.4-3.4-6.7c-1.7-1.4-4.3-2.1-7.8-2.1c-3.6,0-6.4,0.7-8.4,2.2
				c-1.3,0.9-1.9,2.2-1.9,3.8c0,1.4,0.6,2.7,1.8,3.7c1.5,1.3,5.3,2.7,11.3,4.1c6,1.4,10.4,2.9,13.2,4.4s5.1,3.6,6.7,6.2
				c1.6,2.6,2.4,5.8,2.4,9.7c0,3.5-1,6.7-2.9,9.8c-1.9,3-4.7,5.3-8.2,6.8c-3.5,1.5-7.9,2.2-13.2,2.2c-7.7,0-13.6-1.8-17.7-5.3
				C319.4,435.9,316.9,430.7,316.1,423.9z"/>
			<path class="st2" d="M371.5,423.9l11.9-1.2c0.7,4,2.2,6.9,4.4,8.8c2.2,1.9,5.2,2.8,8.9,2.8c3.9,0,6.9-0.8,8.9-2.5
				c2-1.7,3-3.6,3-5.9c0-1.4-0.4-2.7-1.3-3.7c-0.8-1-2.3-1.9-4.4-2.6c-1.4-0.5-4.7-1.4-9.8-2.7c-6.6-1.6-11.2-3.6-13.8-6
				c-3.7-3.3-5.6-7.4-5.6-12.2c0-3.1,0.9-6,2.6-8.7c1.8-2.7,4.3-4.7,7.6-6.2c3.3-1.4,7.3-2.1,12-2.1c7.6,0,13.4,1.7,17.2,5
				c3.9,3.3,5.9,7.8,6.1,13.4l-12.3,0.5c-0.5-3.1-1.7-5.4-3.4-6.7c-1.7-1.4-4.3-2.1-7.8-2.1c-3.6,0-6.4,0.7-8.4,2.2
				c-1.3,0.9-1.9,2.2-1.9,3.8c0,1.4,0.6,2.7,1.8,3.7c1.5,1.3,5.3,2.7,11.3,4.1c6,1.4,10.4,2.9,13.2,4.4s5.1,3.6,6.7,6.2
				c1.6,2.6,2.4,5.8,2.4,9.7c0,3.5-1,6.7-2.9,9.8c-1.9,3-4.7,5.3-8.2,6.8c-3.5,1.5-7.9,2.2-13.2,2.2c-7.7,0-13.6-1.8-17.7-5.3
				C374.7,435.9,372.3,430.7,371.5,423.9z"/>
			<path class="st2" d="M505.9,421.4l11.9,3.8c-1.8,6.6-4.9,11.6-9.1,14.8c-4.2,3.2-9.6,4.8-16.1,4.8c-8.1,0-14.7-2.8-19.9-8.3
				c-5.2-5.5-7.8-13-7.8-22.6c0-10.1,2.6-18,7.8-23.6c5.2-5.6,12.1-8.4,20.6-8.4c7.4,0,13.5,2.2,18.1,6.6c2.8,2.6,4.8,6.3,6.2,11.2
				l-12.1,2.9c-0.7-3.1-2.2-5.6-4.5-7.5c-2.3-1.8-5-2.7-8.3-2.7c-4.5,0-8.2,1.6-11,4.8c-2.8,3.2-4.2,8.5-4.2,15.7
				c0,7.7,1.4,13.1,4.1,16.4c2.8,3.3,6.4,4.9,10.8,4.9c3.3,0,6.1-1,8.4-3.1C503.2,429.1,504.9,425.8,505.9,421.4z"/>
			<path class="st2" d="M524.6,413.7c0-6.2,0.9-11.4,2.8-15.6c1.4-3.1,3.3-5.9,5.7-8.3c2.4-2.5,5-4.3,7.9-5.5
				c3.8-1.6,8.1-2.4,13.1-2.4c8.9,0,16.1,2.8,21.5,8.3c5.4,5.6,8.1,13.3,8.1,23.2c0,9.8-2.7,17.5-8,23c-5.3,5.5-12.5,8.3-21.4,8.3
				c-9,0-16.2-2.8-21.5-8.3S524.6,423.4,524.6,413.7z M537.3,413.3c0,6.9,1.6,12.1,4.8,15.6c3.2,3.5,7.2,5.3,12.1,5.3
				s8.9-1.8,12-5.3c3.1-3.5,4.7-8.8,4.7-15.8c0-7-1.5-12.2-4.6-15.6c-3.1-3.4-7.1-5.1-12.2-5.1c-5.1,0-9.1,1.7-12.2,5.2
				C538.8,401.1,537.3,406.3,537.3,413.3z"/>
			<path class="st2" d="M592,443.7V383h11.9l24.9,40.6V383h11.4v60.7h-12.3l-24.5-39.6v39.6H592z"/>
			<path class="st2" d="M648.8,423.9l11.9-1.2c0.7,4,2.2,6.9,4.4,8.8c2.2,1.9,5.2,2.8,8.9,2.8c3.9,0,6.9-0.8,8.9-2.5
				c2-1.7,3-3.6,3-5.9c0-1.4-0.4-2.7-1.3-3.7c-0.8-1-2.3-1.9-4.4-2.6c-1.4-0.5-4.7-1.4-9.8-2.7c-6.6-1.6-11.2-3.6-13.8-6
				c-3.7-3.3-5.6-7.4-5.6-12.2c0-3.1,0.9-6,2.6-8.7c1.8-2.7,4.3-4.7,7.6-6.2c3.3-1.4,7.3-2.1,12-2.1c7.6,0,13.4,1.7,17.2,5
				s5.9,7.8,6.1,13.4l-12.3,0.5c-0.5-3.1-1.7-5.4-3.4-6.7s-4.3-2.1-7.8-2.1c-3.6,0-6.4,0.7-8.4,2.2c-1.3,0.9-1.9,2.2-1.9,3.8
				c0,1.4,0.6,2.7,1.8,3.7c1.5,1.3,5.3,2.7,11.3,4.1c6,1.4,10.4,2.9,13.2,4.4c2.9,1.5,5.1,3.6,6.7,6.2c1.6,2.6,2.4,5.8,2.4,9.7
				c0,3.5-1,6.7-2.9,9.8c-1.9,3-4.7,5.3-8.2,6.8c-3.5,1.5-7.9,2.2-13.2,2.2c-7.7,0-13.6-1.8-17.7-5.3
				C652,435.9,649.6,430.7,648.8,423.9z"/>
			<path class="st2" d="M707.1,383h12.3v32.9c0,5.2,0.2,8.6,0.5,10.2c0.5,2.5,1.8,4.5,3.8,6c2,1.5,4.7,2.3,8.1,2.3
				c3.5,0,6.1-0.7,7.9-2.1c1.8-1.4,2.8-3.2,3.2-5.2c0.4-2.1,0.5-5.5,0.5-10.3V383h12.3v31.9c0,7.3-0.3,12.4-1,15.5s-1.9,5.6-3.7,7.6
				c-1.8,2.1-4.2,3.7-7.1,5c-3,1.2-6.9,1.8-11.7,1.8c-5.8,0-10.2-0.7-13.2-2s-5.4-3.1-7.1-5.2s-2.9-4.4-3.4-6.7
				c-0.8-3.5-1.2-8.6-1.2-15.4V383z"/>
			<path class="st2" d="M767.6,443.7v-60.2h12.3v50h30.5v10.2H767.6z"/>
			<path class="st2" d="M825.2,443.7v-50.5h-18V383h48.3v10.3h-18v50.5H825.2z"/>
			<path class="st2" d="M861.7,443.7V383H874v60.7H861.7z"/>
			<path class="st2" d="M884.5,443.7V383h11.9l24.9,40.6V383h11.4v60.7h-12.3l-24.5-39.6v39.6H884.5z"/>
			<path class="st2" d="M972.7,421.4v-10.2h26.4v24.2c-2.6,2.5-6.3,4.7-11.2,6.6s-9.8,2.8-14.8,2.8c-6.4,0-11.9-1.3-16.6-4
				c-4.7-2.7-8.3-6.5-10.6-11.4c-2.4-5-3.6-10.4-3.6-16.2c0-6.3,1.3-11.9,4-16.9c2.7-4.9,6.5-8.7,11.6-11.3c3.9-2,8.7-3,14.5-3
				c7.5,0,13.4,1.6,17.7,4.7c4.2,3.2,7,7.5,8.2,13.1l-12.2,2.3c-0.9-3-2.5-5.3-4.8-7.1c-2.4-1.7-5.3-2.6-8.8-2.6
				c-5.4,0-9.6,1.7-12.8,5.1s-4.7,8.4-4.7,15.1c0,7.2,1.6,12.6,4.8,16.2c3.2,3.6,7.4,5.4,12.6,5.4c2.6,0,5.1-0.5,7.7-1.5
				c2.6-1,4.8-2.2,6.7-3.7v-7.7H972.7z"/>
		</g>
	</g>
</g>
</svg>
