<?xml version="1.0" encoding="iso-8859-1"?>
<!-- Generator: Adobe Illustrator 19.0.1, SVG Export Plug-In . SVG Version: 6.00 Build 0)  -->
<svg version="1.1" id="Layer_1" xmlns="http://www.w3.org/2000/svg" xmlns:xlink="http://www.w3.org/1999/xlink" x="0px" y="0px"
	 viewBox="0 0 192 71.745" style="enable-background:new 0 0 192 71.745;" xml:space="preserve">
<g>
	<g>
		<path style="fill:#231F20;" d="M0.138,61.716h3.939c0.78,0,1.361,0.032,1.745,0.097c0.383,0.065,0.726,0.201,1.028,0.407
			c0.303,0.206,0.555,0.481,0.756,0.824s0.303,0.727,0.303,1.153c0,0.461-0.125,0.885-0.374,1.271
			c-0.249,0.385-0.586,0.674-1.012,0.867c0.601,0.175,1.063,0.473,1.385,0.894c0.322,0.421,0.484,0.917,0.484,1.486
			c0,0.448-0.104,0.884-0.313,1.308c-0.208,0.423-0.493,0.762-0.854,1.015c-0.361,0.253-0.806,0.409-1.334,0.467
			c-0.332,0.036-1.131,0.059-2.4,0.067H0.138V61.716z M2.127,63.356v2.279h1.304c0.775,0,1.257-0.011,1.445-0.034
			c0.341-0.04,0.608-0.158,0.804-0.353c0.195-0.195,0.292-0.452,0.292-0.77c0-0.305-0.084-0.552-0.252-0.743
			s-0.418-0.306-0.75-0.346c-0.197-0.022-0.764-0.034-1.701-0.034H2.127z M2.127,67.275v2.635H3.97c0.717,0,1.172-0.02,1.365-0.061
			c0.295-0.054,0.537-0.185,0.723-0.393c0.186-0.208,0.279-0.487,0.279-0.837c0-0.296-0.072-0.547-0.215-0.753
			c-0.143-0.206-0.351-0.356-0.622-0.45c-0.271-0.094-0.859-0.142-1.765-0.142H2.127z"/>
		<path style="fill:#231F20;" d="M9.856,61.716h1.99v5.337c0,0.847,0.024,1.396,0.074,1.647c0.085,0.403,0.288,0.727,0.608,0.972
			c0.321,0.244,0.759,0.366,1.314,0.366c0.565,0,0.99-0.115,1.277-0.346c0.287-0.231,0.459-0.514,0.518-0.851
			c0.058-0.336,0.087-0.894,0.087-1.674v-5.452h1.99v5.176c0,1.183-0.054,2.019-0.161,2.507c-0.107,0.489-0.306,0.901-0.595,1.237
			c-0.289,0.336-0.675,0.604-1.16,0.804c-0.484,0.199-1.116,0.299-1.896,0.299c-0.941,0-1.655-0.108-2.141-0.326
			c-0.486-0.217-0.871-0.5-1.153-0.847s-0.468-0.711-0.558-1.093c-0.13-0.564-0.195-1.398-0.195-2.5V61.716z"/>
		<path style="fill:#231F20;" d="M19.104,68.364l1.936-0.188c0.116,0.65,0.353,1.127,0.709,1.432
			c0.356,0.305,0.837,0.457,1.442,0.457c0.641,0,1.124-0.135,1.448-0.407c0.325-0.271,0.488-0.588,0.488-0.951
			c0-0.233-0.068-0.431-0.205-0.595s-0.375-0.306-0.716-0.427c-0.233-0.081-0.764-0.224-1.593-0.43
			c-1.067-0.264-1.815-0.589-2.246-0.975c-0.605-0.542-0.908-1.204-0.908-1.983c0-0.501,0.143-0.971,0.427-1.408
			c0.284-0.437,0.694-0.77,1.23-0.998c0.536-0.229,1.182-0.343,1.939-0.343c1.237,0,2.168,0.271,2.793,0.813
			c0.625,0.542,0.953,1.266,0.985,2.171l-1.99,0.087c-0.085-0.506-0.268-0.871-0.548-1.092c-0.28-0.222-0.7-0.333-1.26-0.333
			c-0.578,0-1.031,0.119-1.358,0.356c-0.211,0.152-0.316,0.356-0.316,0.612c0,0.233,0.099,0.433,0.296,0.598
			c0.25,0.211,0.86,0.43,1.828,0.659c0.968,0.229,1.684,0.465,2.148,0.709s0.827,0.578,1.089,1.001
			c0.262,0.424,0.394,0.947,0.394,1.57c0,0.565-0.157,1.094-0.471,1.586c-0.313,0.493-0.757,0.859-1.331,1.099
			s-1.289,0.36-2.145,0.36c-1.246,0-2.203-0.288-2.871-0.864C19.632,70.306,19.233,69.466,19.104,68.364z"/>
		<path style="fill:#231F20;" d="M28.525,71.57v-9.855h1.99v9.855H28.525z"/>
		<path style="fill:#231F20;" d="M32.227,71.57v-9.855h1.936l4.033,6.581v-6.581h1.849v9.855h-1.997l-3.973-6.427v6.427H32.227z"/>
		<path style="fill:#231F20;" d="M41.945,71.57v-9.855h7.308v1.667h-5.317v2.185h4.948v1.661h-4.948v2.682h5.505v1.661H41.945z"/>
		<path style="fill:#231F20;" d="M50.419,68.364l1.936-0.188c0.116,0.65,0.353,1.127,0.709,1.432
			c0.356,0.305,0.837,0.457,1.442,0.457c0.641,0,1.124-0.135,1.448-0.407c0.325-0.271,0.488-0.588,0.488-0.951
			c0-0.233-0.068-0.431-0.205-0.595s-0.375-0.306-0.716-0.427c-0.233-0.081-0.764-0.224-1.593-0.43
			c-1.067-0.264-1.815-0.589-2.246-0.975c-0.605-0.542-0.908-1.204-0.908-1.983c0-0.501,0.143-0.971,0.427-1.408
			c0.284-0.437,0.694-0.77,1.23-0.998c0.536-0.229,1.182-0.343,1.939-0.343c1.237,0,2.168,0.271,2.793,0.813
			c0.625,0.542,0.953,1.266,0.985,2.171l-1.99,0.087c-0.085-0.506-0.268-0.871-0.548-1.092c-0.28-0.222-0.7-0.333-1.26-0.333
			c-0.578,0-1.031,0.119-1.358,0.356c-0.211,0.152-0.316,0.356-0.316,0.612c0,0.233,0.099,0.433,0.296,0.598
			c0.25,0.211,0.86,0.43,1.828,0.659c0.968,0.229,1.684,0.465,2.148,0.709s0.827,0.578,1.089,1.001
			c0.262,0.424,0.394,0.947,0.394,1.57c0,0.565-0.157,1.094-0.471,1.586c-0.313,0.493-0.757,0.859-1.331,1.099
			s-1.289,0.36-2.145,0.36c-1.246,0-2.203-0.288-2.871-0.864C50.948,70.306,50.549,69.466,50.419,68.364z"/>
		<path style="fill:#231F20;" d="M59.398,68.364l1.936-0.188c0.116,0.65,0.353,1.127,0.709,1.432
			c0.356,0.305,0.837,0.457,1.442,0.457c0.641,0,1.124-0.135,1.448-0.407c0.325-0.271,0.488-0.588,0.488-0.951
			c0-0.233-0.068-0.431-0.205-0.595s-0.375-0.306-0.716-0.427c-0.233-0.081-0.764-0.224-1.593-0.43
			c-1.067-0.264-1.815-0.589-2.246-0.975c-0.605-0.542-0.908-1.204-0.908-1.983c0-0.501,0.143-0.971,0.427-1.408
			c0.284-0.437,0.694-0.77,1.23-0.998c0.536-0.229,1.182-0.343,1.939-0.343c1.237,0,2.168,0.271,2.793,0.813
			c0.625,0.542,0.953,1.266,0.985,2.171l-1.99,0.087c-0.085-0.506-0.268-0.871-0.548-1.092c-0.28-0.222-0.7-0.333-1.26-0.333
			c-0.578,0-1.031,0.119-1.358,0.356c-0.211,0.152-0.316,0.356-0.316,0.612c0,0.233,0.099,0.433,0.296,0.598
			c0.25,0.211,0.86,0.43,1.828,0.659c0.968,0.229,1.684,0.465,2.148,0.709s0.827,0.578,1.089,1.001
			c0.262,0.424,0.394,0.947,0.394,1.57c0,0.565-0.157,1.094-0.471,1.586c-0.313,0.493-0.757,0.859-1.331,1.099
			s-1.289,0.36-2.145,0.36c-1.246,0-2.203-0.288-2.871-0.864C59.927,70.306,59.528,69.466,59.398,68.364z"/>
		<path style="fill:#231F20;" d="M81.217,67.947l1.93,0.612c-0.296,1.076-0.788,1.875-1.476,2.396
			c-0.688,0.522-1.561,0.783-2.619,0.783c-1.309,0-2.384-0.447-3.227-1.341c-0.843-0.895-1.264-2.117-1.264-3.667
			c0-1.64,0.424-2.914,1.271-3.822c0.847-0.907,1.96-1.361,3.341-1.361c1.206,0,2.185,0.356,2.938,1.069
			c0.448,0.421,0.784,1.026,1.008,1.815l-1.97,0.47c-0.117-0.511-0.36-0.914-0.729-1.21c-0.37-0.295-0.819-0.443-1.348-0.443
			c-0.731,0-1.324,0.262-1.778,0.786c-0.455,0.524-0.682,1.374-0.682,2.548c0,1.246,0.224,2.133,0.672,2.662
			c0.448,0.529,1.031,0.793,1.748,0.793c0.529,0,0.984-0.168,1.365-0.504C80.778,69.197,81.052,68.669,81.217,67.947z"/>
		<path style="fill:#231F20;" d="M84.247,66.703c0-1.004,0.15-1.846,0.451-2.527c0.224-0.502,0.53-0.953,0.917-1.352
			s0.813-0.694,1.274-0.887c0.614-0.26,1.322-0.39,2.125-0.39c1.452,0,2.614,0.451,3.485,1.352s1.308,2.153,1.308,3.758
			c0,1.591-0.433,2.836-1.297,3.734c-0.865,0.898-2.021,1.348-3.469,1.348c-1.466,0-2.631-0.447-3.496-1.341
			C84.679,69.503,84.247,68.272,84.247,66.703z M86.297,66.636c0,1.116,0.258,1.962,0.773,2.538
			c0.515,0.576,1.169,0.864,1.963,0.864c0.793,0,1.444-0.286,1.953-0.857c0.509-0.572,0.763-1.429,0.763-2.572
			c0-1.129-0.248-1.972-0.743-2.527c-0.496-0.556-1.153-0.833-1.973-0.833s-1.481,0.281-1.983,0.843
			C86.548,64.654,86.297,65.503,86.297,66.636z"/>
		<path style="fill:#231F20;" d="M95.175,71.57v-9.855h1.937l4.033,6.581v-6.581h1.849v9.855h-1.997l-3.973-6.427v6.427H95.175z"/>
		<path style="fill:#231F20;" d="M104.389,68.364l1.936-0.188c0.116,0.65,0.354,1.127,0.709,1.432
			c0.356,0.305,0.837,0.457,1.442,0.457c0.641,0,1.124-0.135,1.448-0.407c0.325-0.271,0.488-0.588,0.488-0.951
			c0-0.233-0.068-0.431-0.205-0.595s-0.376-0.306-0.717-0.427c-0.232-0.081-0.764-0.224-1.593-0.43
			c-1.066-0.264-1.815-0.589-2.245-0.975c-0.605-0.542-0.908-1.204-0.908-1.983c0-0.501,0.143-0.971,0.428-1.408
			c0.284-0.437,0.694-0.77,1.229-0.998c0.536-0.229,1.183-0.343,1.939-0.343c1.237,0,2.168,0.271,2.794,0.813
			c0.625,0.542,0.953,1.266,0.984,2.171l-1.99,0.087c-0.085-0.506-0.268-0.871-0.548-1.092c-0.279-0.222-0.7-0.333-1.26-0.333
			c-0.578,0-1.031,0.119-1.358,0.356c-0.211,0.152-0.315,0.356-0.315,0.612c0,0.233,0.099,0.433,0.296,0.598
			c0.25,0.211,0.86,0.43,1.828,0.659c0.968,0.229,1.684,0.465,2.147,0.709s0.827,0.578,1.089,1.001
			c0.263,0.424,0.394,0.947,0.394,1.57c0,0.565-0.157,1.094-0.471,1.586c-0.313,0.493-0.757,0.859-1.331,1.099
			c-0.573,0.24-1.288,0.36-2.145,0.36c-1.246,0-2.202-0.288-2.87-0.864S104.519,69.466,104.389,68.364z"/>
		<path style="fill:#231F20;" d="M113.858,61.716h1.989v5.337c0,0.847,0.024,1.396,0.074,1.647c0.085,0.403,0.288,0.727,0.608,0.972
			c0.32,0.244,0.759,0.366,1.314,0.366c0.564,0,0.99-0.115,1.277-0.346c0.286-0.231,0.459-0.514,0.518-0.851
			c0.058-0.336,0.087-0.894,0.087-1.674v-5.452h1.99v5.176c0,1.183-0.054,2.019-0.161,2.507c-0.107,0.489-0.307,0.901-0.596,1.237
			c-0.289,0.336-0.675,0.604-1.159,0.804c-0.484,0.199-1.116,0.299-1.896,0.299c-0.941,0-1.655-0.108-2.142-0.326
			c-0.486-0.217-0.87-0.5-1.152-0.847s-0.469-0.711-0.559-1.093c-0.13-0.564-0.194-1.398-0.194-2.5V61.716z"/>
		<path style="fill:#231F20;" d="M123.663,71.57v-9.774h1.99v8.114h4.947v1.661H123.663z"/>
		<path style="fill:#231F20;" d="M133.012,71.57v-8.188h-2.924v-1.667h7.831v1.667h-2.917v8.188H133.012z"/>
		<path style="fill:#231F20;" d="M138.937,71.57v-9.855h1.99v9.855H138.937z"/>
		<path style="fill:#231F20;" d="M142.64,71.57v-9.855h1.937l4.033,6.581v-6.581h1.849v9.855h-1.997l-3.973-6.427v6.427H142.64z"/>
		<path style="fill:#231F20;" d="M156.942,67.947v-1.66h4.289v3.926c-0.417,0.403-1.021,0.759-1.813,1.065
			c-0.791,0.307-1.592,0.46-2.403,0.46c-1.03,0-1.929-0.216-2.695-0.648c-0.767-0.433-1.342-1.051-1.728-1.855
			c-0.386-0.805-0.578-1.68-0.578-2.625c0-1.026,0.215-1.938,0.646-2.736c0.43-0.798,1.06-1.409,1.889-1.835
			c0.632-0.327,1.419-0.491,2.359-0.491c1.224,0,2.18,0.257,2.867,0.77c0.688,0.513,1.131,1.222,1.328,2.127l-1.977,0.37
			c-0.139-0.484-0.4-0.866-0.783-1.146c-0.383-0.28-0.861-0.42-1.436-0.42c-0.869,0-1.561,0.275-2.073,0.827
			c-0.514,0.551-0.771,1.369-0.771,2.454c0,1.17,0.261,2.047,0.78,2.632c0.52,0.585,1.201,0.877,2.044,0.877
			c0.416,0,0.834-0.082,1.253-0.246c0.42-0.163,0.779-0.362,1.079-0.595v-1.25H156.942z"/>
	</g>
	<path style="fill:#F2623E;" d="M190.578,11.793c-0.856-2.188-2.124-4.086-3.665-5.692c-1.542-1.606-3.422-3.077-5.572-3.984
		c-2.15-0.906-4.556-1.575-7.146-1.575H143v14.232l15.436,40.768H161v-17h13.195c2.59,0,4.961-0.703,7.111-1.61
		c2.15-0.907,3.995-2.294,5.537-3.914c1.541-1.618,2.88-3.592,3.735-5.794c0.855-2.202,1.422-4.66,1.422-7.251v-1.01
		C192,16.372,191.433,13.982,190.578,11.793z M174,19.895c0,1.632-0.518,3.076-1.437,4.047c-0.92,0.972-2.371,1.6-4.235,1.6H161v-12
		h7.328c1.916,0,3.381,0.684,4.273,1.642c0.894,0.959,1.399,2.458,1.399,4.09V19.895z"/>
	<path style="fill:#00405D;" d="M93.403,32.796c1.762-0.647,3.303-1.496,4.625-2.545c1.322-1.049,2.422-2.234,3.303-3.555
		c0.88-1.321,1.54-2.74,1.982-4.255c0.44-1.515,0.66-3.076,0.66-4.682c0-2.228-0.387-4.352-1.166-6.372
		c-0.777-2.021-1.941-3.802-3.497-5.343c-1.554-1.541-3.483-2.987-5.789-3.907c-2.306-0.919-4.974-1.594-8.005-1.594h-31.26
		c0.325,1,0.663,0.572,0.975,0.769c2.572,1.629,4.716,3.836,6.247,6.346C63.047,10.232,64,13.396,64,16.849v3.692H52.467
		c0.194,0,0.388,0.289,0.582,0.361c2.205,0.829,4.215,2.018,5.977,3.392c1.849,1.441,3.365,3.278,4.505,5.385
		c1.17,2.165,1.795,4.806,1.856,7.815c0,3.91-0.721,7.308-2.145,10.141c-1.434,2.852-3.456,5.136-6.011,6.956
		c-0.518,0.369-1.067,0.949-1.625,0.949H70v-20h6.112l9.714,20h5.799l5.687-15.469L93.403,32.796z M85.67,20.517
		c-0.258,0.622-0.615,1.159-1.067,1.612c-0.454,0.453-0.979,0.788-1.574,1.046c-0.597,0.259-1.231,0.366-1.905,0.366H70v-10h11.124
		c0.674,0,1.308,0.094,1.905,0.34c0.595,0.246,1.12,0.575,1.574,1.015c0.452,0.441,0.809,0.964,1.067,1.586s0.389,1.292,0.389,2.017
		C86.06,19.225,85.929,19.895,85.67,20.517z"/>
	<path style="fill:#00405D;" d="M10.53,48.237C8.922,45.279,8,41.561,8,37.187v-2.645h10V33.22c-1-0.582-1.912-1.223-2.759-1.933
		c-1.829-1.531-3.328-3.431-4.428-5.648c-1.123-2.261-1.699-4.991-1.699-8.114c0-3.727,0.85-6.981,2.478-9.674
		C13.179,5.227,15,3.069,18,1.437V0.542H0v55h18v0.096c0-0.098-0.442-0.181-0.611-0.283C14.517,53.621,12.155,51.226,10.53,48.237z"
		/>
	<path style="fill:#00405D;" d="M62.388,37.575c-0.052-2.539-0.55-4.682-1.496-6.431c-0.946-1.749-2.183-3.219-3.711-4.41
		c-1.529-1.192-3.258-2.15-5.188-2.875c-1.93-0.725-3.899-1.334-5.906-1.826c-2.008-0.492-3.97-0.913-5.887-1.263
		c-1.917-0.35-3.627-0.738-5.129-1.165c-1.503-0.428-2.714-0.952-3.633-1.574c-0.92-0.621-1.379-1.45-1.379-2.487
		c0-0.958,0.602-1.793,1.807-2.506c1.205-0.712,3.024-1.068,5.46-1.068c1.269,0,2.351,0.155,3.244,0.466
		c0.894,0.311,1.625,0.725,2.195,1.244c0.57,0.519,0.786,1.107,1.045,1.768C44.069,16.106,44,16.8,44,17.525v0.017h17v-0.639
		c0-2.927-0.789-5.453-2.084-7.577c-1.295-2.124-3.069-3.879-5.258-5.265c-2.189-1.385-4.756-2.409-7.671-3.07
		C43.073,0.33,39.962,0,36.672,0c-3.238,0-6.344,0.317-9.31,0.952c-2.966,0.635-5.578,1.646-7.831,3.031
		c-2.254,1.386-4.055,3.193-5.402,5.421c-1.347,2.228-2.021,4.935-2.021,8.121c0,2.668,0.459,4.929,1.379,6.781
		c0.919,1.852,2.137,3.413,3.653,4.682c1.515,1.27,3.244,2.299,5.187,3.089c1.943,0.791,3.918,1.444,5.925,1.962
		c2.007,0.518,3.983,0.958,5.926,1.321c1.943,0.363,3.672,0.758,5.187,1.186c1.515,0.427,2.733,0.939,3.653,1.535
		c0.919,0.596,1.379,1.386,1.379,2.37c0,0.855-0.252,1.529-0.758,2.02c-0.505,0.492-1.14,0.855-1.904,1.088
		c-0.764,0.233-1.6,0.382-2.506,0.447c-0.907,0.065-1.762,0.097-2.565,0.097c-1.347,0-2.565-0.084-3.652-0.252
		c-1.088-0.169-2.015-0.505-2.779-1.01c-0.764-0.505-1.354-1.027-1.768-1.921c-0.415-0.894-0.622-2.378-0.622-3.378H11.213
		c0,4,0.686,6.914,2.06,9.44c1.373,2.526,3.27,4.432,5.692,5.895c2.422,1.464,5.284,2.437,8.588,3.007
		c3.303,0.569,6.871,0.832,10.705,0.832c3.445,0,6.638-0.367,9.578-1.08c2.94-0.712,5.492-1.845,7.655-3.386
		c2.163-1.541,3.853-3.525,5.071-5.948C61.779,43.879,62.388,40.969,62.388,37.575z"/>
	<polygon style="fill:#F2623E;" points="135.269,0.542 114.83,0.542 94.818,55.542 105.567,55.542 114.81,55.542 117.142,49.542 
		121,49.542 121,35.542 116.847,35.542 125.03,14.343 133.213,35.542 129,35.542 129,49.542 132.298,49.542 134.629,55.542 
		143.497,55.542 155.242,55.542 	"/>
</g>
</svg>
