<svg style="position: absolute; width: 0; height: 0;" width="0" height="0" version="1.1" xmlns="http://www.w3.org/2000/svg" xmlns:xlink="http://www.w3.org/1999/xlink">
<defs>
<symbol id="icon-expertise" viewBox="0 0 1498 1024">
	<title>expertise</title>
	<path class="path1" d="M330.967 911.718c-3.553 0.010-7.117 0.010-10.752 0.010-301.138 0-292.751-30.362-309.821-52.46-19.108-28.201-11.366-141.425 18.964-166.134 7.444-9.267 22.62-20.675 41.359-30.792 44.687-24.146 119.716-49.428 130.324-61.706 4.741-5.489 16.2-24.648 12.861-50.237-0.85-4.7-2.161-9.636-4.024-14.776-11.868-22.344-19.251-49.193-24.33-78.633-1.741 0.328-3.809 0.553-6.103 0.543-0.123 0-0.246 0.010-0.348 0.010-0.051 0-0.113-0.010-0.154-0.010-2.632 0.010-5.581-0.287-8.786-1.126-12.155-3.164-16.507-24.32-16.507-24.32s-10.435-33.024-12.175-39.107c-1.731-6.083-6.953-19.108-5.212-33.014 1.556-12.37 10.824-18.698 18.811-18.575 1.229-0.041 2.417 0.061 3.564 0.328 2.55 0.584 5.304 2.191 8.069 4.321 0.225 0.174 0.461 0.307 0.707 0.42 3.174 0.481 6.656-3.164 6.062-6.461-4.516-25.068-6.973-50.524-6.973-75.182 0-84.695 68.669-153.354 153.364-153.354 0.113 0 0.215 0 0.338 0 0.092 0 0.205 0 0.307 0 84.695 0 153.364 68.659 153.364 153.354 0 24.658-2.447 50.115-6.984 75.182-0.594 3.308 2.898 6.943 6.083 6.461 0.246-0.113 0.471-0.256 0.696-0.42 2.755-2.13 5.53-3.738 8.079-4.321 1.147-0.266 2.335-0.369 3.564-0.328 7.987-0.123 17.265 6.216 18.811 18.575 1.731 13.906-3.482 26.931-5.222 33.014s-12.155 39.107-12.155 39.107-4.342 21.166-16.507 24.32c-3.215 0.829-6.154 1.126-8.786 1.126-0.041 0-0.092 0.010-0.143 0.010-0.123 0-0.236-0.010-0.348-0.010-2.304 0.010-4.372-0.215-6.103-0.543-5.079 29.44-12.472 56.289-24.33 78.633-1.864 5.14-3.185 10.076-4.024 14.776-3.338 25.59 8.11 44.759 12.851 50.237 7.25 8.387 44.534 22.835 81.695 38.851-28.508 12.052-59.587 25.416-84.398 38.82-26.266 14.193-47.739 30.177-60.549 45.036-35.052 32.246-50.749 121.692-45.138 188.375zM1479.373 719.391c-0.829-2.14-2.386-4.557-4.608-7.148-6.41-7.987-19.487-17.807-35.615-26.522-38.492-20.787-103.127-42.557-112.251-53.135-4.086-4.721-13.947-21.228-11.069-43.274 0.707-4.035 1.843-8.294 3.471-12.718 2.54-4.803 4.854-9.851 6.953-15.124 108.749-14.961 144.916-53.289 147.61-77.322-73.103-21.473-75.766-97.536-82.319-170.803-7.711-86.016-74.813-156.283-167.086-156.283-92.293 0-149.862 71.485-167.086 156.283-14.449 71.086-13.107 167.455-87.552 167.496 1.393 25.876 38.144 65.833 152.596 80.876 2.079 5.181 4.352 10.148 6.861 14.868 1.608 4.424 2.744 8.684 3.471 12.718 2.857 22.047-6.994 38.554-11.069 43.274-5.376 6.216-29.901 16.302-57.006 27.771 12.943 5.919 25.416 11.94 36.557 17.951 26.419 14.285 48.026 30.382 60.805 45.343 29.061 26.982 44.524 110.909 42.957 176.794 6.277 0.031 12.677 0.061 19.282 0.061 259.338 0 252.119-26.153 266.813-45.179 10.711-22.661 11.479-75.418-11.715-135.926zM1137.828 746.752c-9.452-11.756-28.692-26.214-52.48-39.055-56.678-30.628-151.849-62.689-165.294-78.264-6.021-6.953-20.541-31.263-16.312-63.724 1.075-5.949 2.734-12.216 5.1-18.739 15.063-28.324 24.433-62.392 30.874-99.717 2.191 0.41 4.813 0.696 7.741 0.686 0.154 0 0.297 0.010 0.43 0.010 0.072 0 0.133-0.010 0.205-0.010 3.338 0.010 7.076-0.369 11.131-1.423 15.421-4.024 20.941-30.863 20.941-30.863s13.22-41.882 15.421-49.592c2.212-7.711 8.827-24.248 6.625-41.882-1.966-15.688-13.742-23.716-23.869-23.562-1.536-0.041-3.072 0.082-4.506 0.41-0.84 0.195-1.69 0.481-2.56 0.84-2.222-33.423 6.523-64.348 6.523-93.46-0.010-114.903-93.512-208.404-208.773-208.394l-0.502-0.010c-114.924 0-208.425 93.501-208.425 208.425 0 29.46 9.083 61.204 5.816 93.225-0.635-0.225-1.26-0.461-1.864-0.594-1.444-0.328-2.959-0.461-4.516-0.41-10.138-0.154-21.903 7.875-23.859 23.562-2.202 17.633 4.403 34.161 6.615 41.882 2.212 7.711 15.421 49.592 15.421 49.592s5.519 26.839 20.951 30.863c4.065 1.055 7.803 1.434 11.131 1.423 0.051 0 0.113 0.010 0.184 0.010 0.143 0 0.297-0.010 0.44-0.010 2.929 0.010 5.55-0.276 7.731-0.686 6.451 37.325 15.821 71.393 30.874 99.717 2.345 6.523 4.024 12.79 5.11 18.739 4.209 32.461-10.312 56.771-16.312 63.724-13.445 15.575-108.605 47.636-165.294 78.264-23.788 12.841-43.008 27.3-52.48 39.055-38.472 31.334-48.282 174.961-24.054 210.719 21.658 27.986 11.028 66.499 392.95 66.499s371.282-38.513 392.929-66.529c22.129-35.758 6.308-186.747-24.044-210.719z"></path>
</symbol>
<symbol id="icon-founder" viewBox="0 0 959 1024">
	<title>founder</title>
	<path class="path1" d="M865.536 0c-257.321 0-514.621 0-771.942 0 324.229 295.404-324.219 590.807 0 886.2 139.52 0 279.050 0 418.56 0-13.087-32.788-26.225-72.868-11.295-123.996l2.028-6.953c-5.642-4.106-11.059-8.52-16.015-13.486-23.357-23.388-36.209-53.658-36.168-85.238-0.041-31.488 12.8-61.747 36.157-85.135 25.375-25.405 60.652-39.977 96.809-39.977 70.636 0 125.993 54.958 126.085 125.112-0.061 49.408-27.535 91.156-68.362 111.636l-5.192 19.343c-8.059 30.013 4.588 60.191 17.992 92.14 0.901 2.15 1.833 4.352 2.744 6.543 69.54 0 139.069 0 208.599 0-324.219-295.383 324.219-590.787 0-886.19zM842.342 312.166h-589.814c3.84-11.336 7.291-22.784 10.199-34.335h593.818c-4.065 11.1-8.817 22.528-14.203 34.335zM871.68 180.5c1.362 11.233 1.362 22.651 0.246 34.335h-599.122c0.717-11.387 0.737-22.835 0.072-34.335h598.804zM821.576 83.159c10.834 11.51 19.804 22.927 27.003 34.335h-587.008c-3.533-11.428-7.936-22.876-13.281-34.335h573.286zM123.822 569.846h266.875c-5.458 11.807-10.332 23.245-14.531 34.345h-267.786c4.557-11.1 9.728-22.528 15.442-34.345zM86.446 701.532c-0.225-11.213 0.686-22.62 2.744-34.345h270.643c-1.341 11.694-1.516 23.112-0.44 34.335h-272.947zM124.365 798.863c-9.236-11.459-16.548-22.876-22.282-34.345h278.61c6.84 11.428 15.391 22.845 25.815 34.345h-282.143zM422.81 506.849h-266.045c4.864-8.817 9.892-17.848 15.084-27.105 1.341-2.386 2.703-4.823 4.055-7.24h265.892c-6.605 11.807-12.954 23.255-18.985 34.345zM210.115 409.518c5.796-11.284 11.469-22.733 16.876-34.345h583.567c-6.001 11.090-12.329 22.548-18.924 34.345h-581.519zM672.604 656.579c-0.061 48.65-37.847 88.013-88.924 88.003-50.934 0.010-95.877-39.352-95.826-88.003-0.061-48.65 44.882-88.003 95.826-88.003 51.067 0 88.863 39.352 88.924 88.003zM606.802 779.622c-23.491 87.398 73.841 166.656 22.559 244.378l-33.198-52.879-67.011 43.95c75.162-105.585-26.86-149.146 0.932-244.326 16.824 7.137 35.082 10.998 53.586 10.998h0.041c7.916-0.010 15.616-0.799 23.091-2.12z"></path>
</symbol>
<symbol id="icon-trends" viewBox="0 0 430 1024">
	<title>trends</title>
	<path class="path1" d="M214.968 1024c-8.274-27.31-19.507-54.692-29.215-78.356-10.097-24.617-19.64-47.862-19.64-57.201 0-10.609 4.71-20.541 12.872-28.078 6.554 11.264 20.224 19.036 35.983 19.036 15.749 0 29.43-7.762 35.973-19.036 8.161 7.537 12.872 17.469 12.872 28.078 0 9.339-9.533 32.584-19.64 57.201-9.708 23.665-20.941 51.046-29.204 78.356zM405.524 859.976c-23.020-32.881-52.408-56.648-85.893-69.437 6.328-35.738 17.162-98.089 28.57-168.694 53.842 47.903 118.845 133.929 57.324 238.131zM24.412 859.965c-63.744-108.401 12.012-198.308 60.324-240.712 10.691 70.892 20.593 134.513 26.317 171.018-33.823 12.708-63.457 36.567-86.641 69.693zM229.284 813.138v-177.469l-14.316-28.836-14.326 28.836v177.469h-41.933c-10.107-63.99-79.862-508.027-79.862-574.484-0.010-118.948 109.937-217.027 136.069-238.653 26.092 21.893 136.172 121.242 136.172 238.653 0 126.515-69.12 515.666-79.698 574.484h-42.107zM214.968 150.948c-32.973 0-59.802 26.829-59.802 59.802s26.829 59.802 59.802 59.802c32.973 0 59.802-26.829 59.802-59.802-0.010-32.973-26.829-59.802-59.802-59.802z"></path>
</symbol>
<symbol id="icon-phone" viewBox="0 0 1024 1024">
	<title>phone</title>
	<path class="path1" d="M512 0c-282.752 0-512 229.248-512 512s229.248 512 512 512c282.752 0 512-229.248 512-512s-229.248-512-512-512zM647.339 823.296c-43.563-3.285-327.595-71.509-447.189-409.344-24.235-70.827 5.717-185.088 86.741-210.603 82.219-26.581 124.288 88.32 136.277 160.939l-71.723 71.637c0 0-2.048 44.8 96.128 142.933 98.048 98.091 142.891 96.085 142.891 96.085l83.328-83.243c52.651 11.093 158.208 78.165 158.208 78.165-13.099 99.072-80.256 164.48-184.661 153.429z"></path>
</symbol>
<symbol id="icon-name-form" viewBox="0 0 934 1024">
	<title>name-form</title>
	<path class="path1" d="M915.029 889.856c-19.669-64.725-178.773-152.405-252.757-184.661-5.035-2.176-10.795-2.091-15.701 0.299l-179.371 86.699-160.768-86.357c-4.821-2.603-10.581-2.944-15.701-0.939-64.427 25.088-252.501 113.024-271.317 185.771-13.44 51.925-18.773 77.397-19.029 78.464-0.256 1.237-0.384 2.517-0.384 3.84 0 25.515 12.843 37.589 23.595 43.221 15.829 8.277 34.816 7.595 54.4 7.211 4.181-0.085 8.491-0.171 12.8-0.171h752.043c5.632 0 11.264 0.213 16.64 0.384 5.461 0.213 10.795 0.384 15.872 0.384 14.379 0 58.197 0 58.197-48.555 0-19.669-1.835-30.677-18.517-85.589zM875.349 986.411c-4.651 0-9.515-0.171-14.549-0.341-5.845-0.213-11.904-0.427-17.963-0.427h-752.085c-4.565 0-9.088-0.085-13.525 0-4.011 0.085-7.979 0-11.776 0-0.043 0-0.085 0-0.128 0-5.163 0-18.517 0.128-24.363-2.901-1.152-0.597-3.072-1.451-3.371-7.936 1.536-6.997 7.083-31.872 18.176-74.709 10.965-42.453 144.725-118.357 240.555-156.971l161.493 86.741c5.291 2.859 11.648 2.987 17.067 0.384l180.181-87.083c105.899 47.573 213.419 123.008 223.957 157.653 16.043 52.821 16.853 60.459 16.853 74.667 0.085 8.619 0.085 10.923-20.523 10.923z"></path>
	<path class="path2" d="M269.397 483.968c10.155 25.344 21.717 43.52 33.877 62.635 3.413 5.419 6.912 10.88 10.453 16.64 12.203 20.011 24.576 35.029 38.357 46.379-0.939 18.517-3.243 41.301-7.381 58.24-2.475 10.069 3.669 20.267 13.781 22.741 10.069 2.475 20.267-3.669 22.741-13.781 5.632-22.869 8.235-54.101 8.832-75.733 0.171-6.357-2.859-12.331-8.064-15.957-12.843-8.875-24.32-22.059-36.139-41.472-3.627-5.973-7.253-11.648-10.795-17.237-13.013-20.48-24.32-38.187-33.877-64.768-2.475-6.912-9.685-11.819-17.024-12.416-1.835-0.128-6.784-3.115-9.472-7.979-19.029-34.816-27.179-88.021-23.595-98.901 0.469-0.299 2.603-1.024 7.168-0.981 5.333 0.427 10.24-1.835 13.909-5.547 3.627-3.669 5.589-8.704 5.419-13.909-3.968-107.861 35.712-165.845 69.717-195.499 6.272-5.419 8.192-14.336 4.779-21.888-0.213-0.512-0.469-0.981-0.725-1.493 16.043-10.752 42.965-10.069 43.307-9.984l1.024-18.773 15.488-10.667c-1.237-2.816 1.28-9.685 4.821-15.957 10.667 8.917 24.917 15.275 38.272 18.987 38.613 10.709 66.645 21.717 84.011 29.355 80.128 31.744 123.733 114.133 119.595 225.963-0.171 5.035 1.664 9.941 5.12 13.611s8.235 5.803 13.312 5.888c3.456 0.085 5.248 0.768 5.12 0.427 4.053 11.477-4.096 64.768-23.083 99.584-2.688 4.907-7.552 7.936-9.429 8.192-6.869 0.939-12.672 5.589-15.061 12.117-9.728 26.283-21.547 44.8-34.048 64.427-3.797 5.931-7.637 11.989-11.52 18.304-11.392 18.731-21.76 31.36-32.64 39.723-4.651 3.584-7.339 9.131-7.296 15.019 0.128 17.109 1.536 50.219 9.557 79.744 2.304 8.363 9.856 13.867 18.133 13.867 1.664 0 3.285-0.213 4.949-0.683 10.027-2.731 15.915-13.099 13.184-23.083-5.845-21.419-7.595-46.208-8.064-61.355 11.733-10.709 22.784-24.832 34.261-43.648 3.712-6.101 7.424-11.904 11.093-17.664 11.733-18.389 23.851-37.376 34.261-62.933 10.325-4.651 19.712-13.312 25.557-23.979 21.888-40.149 34.517-104.619 25.515-130.091-3.627-10.283-11.008-17.792-21.163-21.931-0.171-119.125-53.12-210.56-142.976-246.144-17.835-7.851-47.701-19.627-88.491-30.933-17.92-4.949-26.581-13.099-27.477-14.635-0.811-5.035-3.669-9.515-7.851-12.416s-9.387-4.011-14.379-2.987c-16.427 3.285-30.763 25.259-36.437 39.253-2.176 5.803-3.669 11.477-4.267 16.896-24.875 3.499-59.733 15.488-69.376 50.56-1.109 3.2-1.451 6.613-0.896 9.899-32.597 36.437-63.659 95.787-63.787 189.483-11.392 3.84-19.669 11.648-23.552 22.784-9.045 25.429 3.584 89.856 25.472 130.005 6.272 11.477 16.555 20.395 27.776 24.704z"></path>
</symbol>
<symbol id="icon-phone-form" viewBox="0 0 1038 1024">
	<title>phone-form</title>
	<path class="path1" d="M1037.312 847.232c-2.773-18.688-14.891-35.157-37.12-50.347l-228.992-156.715c-11.819-8.064-25.557-12.331-39.765-12.331-22.101 0-42.837 10.453-55.509 28.032l-59.435 84.139c-4.651 6.528-5.76 14.549-6.059 22.315-22.741 3.328-88.619 1.323-196.779-106.795-104.576-104.405-154.069-181.205-147.669-228.608 1.152-0.555 2.005-1.707 3.029-2.475 5.461-1.493 10.453-3.371 14.507-6.528l82.091-62.165c29.269-22.144 35.029-65.109 12.715-95.957l-164.139-223.829c-31.573-43.008-68.693-47.488-108.544-13.227-25.216 21.589-67.029 73.813-84.395 105.173-9.515 16.811-13.44 34.176-11.776 51.627-6.016 25.173-19.243 99.243 2.773 202.581 29.909 140.459 110.805 275.328 240.427 400.811 216.747 209.707 407.125 241.024 501.333 241.067v0c55.381 0 94.037-10.155 111.829-17.664 16.555 0.683 32.896-3.968 48.853-13.525 30.891-18.261 81.621-61.824 102.357-87.851 16.384-20.267 22.997-39.168 20.267-57.728zM986.837 880.768c-17.877 22.443-65.109 62.933-91.947 78.805-3.627 2.176-7.211 3.755-10.795 5.077-26.112-11.349-72.107-35.371-85.888-52.608-6.656-8.32-18.859-9.685-27.221-3.029-8.363 6.699-9.685 18.859-3.029 27.221 12.16 15.189 35.413 30.336 56.661 42.155-16.981 3.669-40.576 6.912-70.613 6.912v0c-88.32 0-267.435-29.909-474.411-230.187-295.125-285.696-239.104-541.227-231.723-569.429 0.64-2.517 0.811-5.163 0.427-7.723-1.536-10.24 0.683-20.395 6.741-31.147 15.147-27.435 54.101-76.075 75.819-94.72 9.984-8.576 18.859-13.141 25.685-13.141 2.901 0 11.819 0 26.453 19.925l164.053 223.701c9.941 13.781 7.808 32.725-4.821 42.24l-81.152 61.611c-0.341 0.171-0.896 0.341-1.451 0.512-21.419-16.427-50.688-41.216-59.947-55.339-5.803-8.96-17.835-11.435-26.795-5.632-8.917 5.845-11.435 17.835-5.632 26.752 12.501 19.2 42.709 44.544 62.037 59.733-15.403 63.061 33.579 147.243 156.971 270.464 98.347 98.304 169.984 118.912 212.821 118.912 18.773 0 32.853-4.181 39.723-8.107 5.163-2.944 8.704-8.107 9.6-13.995 0.384-2.645 0.512-6.443 0.555-10.624 0.043-2.304 0.085-6.315 0.341-8.533l58.112-82.219c8.832-12.288 28.544-15.36 41.941-6.229l228.992 156.672c12.629 8.619 19.584 16.725 20.651 24.064 1.067 7.168-2.987 16.555-12.16 27.904z"></path>
	<path class="path2" d="M496.853 222.976c149.717 45.739 266.837 162.261 313.344 311.723 2.56 8.277 10.24 13.611 18.475 13.611 1.92 0 3.84-0.299 5.76-0.853 10.197-3.157 15.915-14.037 12.757-24.235-50.304-161.707-177.067-287.787-339.029-337.237-10.24-3.2-21.035 2.645-24.149 12.843-3.115 10.24 2.645 21.035 12.843 24.149z"></path>
	<path class="path3" d="M523.435 79.573c224.469 53.077 396.075 233.941 437.205 460.843 1.707 9.344 9.856 15.915 19.029 15.915 1.152 0 2.304-0.085 3.456-0.299 10.539-1.92 17.493-11.989 15.616-22.528-43.861-242.048-226.944-435.029-466.389-491.648-10.368-2.347-20.821 3.968-23.296 14.379-2.475 10.453 3.968 20.864 14.379 23.339z"></path>
</symbol>
</defs>
</svg>
